<svg xmlns="http://www.w3.org/2000/svg" xmlns:xlink="http://www.w3.org/1999/xlink" viewBox="0 0 120 90.98"><defs><clipPath id="a"><rect width="120" height="90.98" style="fill:none"/></clipPath></defs><title>bg</title><g style="clip-path:url(#a)"><path d="M54.84,83c33.74,1.44,65.72-.4,65.72-.4V-.2H13.12S7,11.37,6,28.49C4.42,56.71,20.8,81.53,54.84,83Z" style="fill:#893030"/><path d="M75.91,34.45l-16.1-5a1.86,1.86,0,0,1-1.24-2.34L59,25.69a1.88,1.88,0,0,0-2.38-2.33L43.23,27.79a1.87,1.87,0,0,0-.9,2.92l8.58,11.22a1.88,1.88,0,0,0,3.28-.59l.45-1.45A1.87,1.87,0,0,1,57,38.65l16.1,5a1.88,1.88,0,0,0,2.34-1.24l1.72-5.59A1.87,1.87,0,0,0,75.91,34.45Z" style="fill:#fff"/><path d="M86.45,16.09l-17.17-5.3a7.32,7.32,0,0,0-9.14,4.83l-1.59,5.17h0a4.55,4.55,0,0,1,3,5.69l-.21.68,1.6.5,3.15-10.2a1.06,1.06,0,0,1,1.33-.7l17.17,5.29a1.08,1.08,0,0,1,.71,1.34L74.62,58.06a1.07,1.07,0,0,1-1.33.71l-17.18-5.3a1.06,1.06,0,0,1-.7-1.33l3.15-10.2L57,41.45l-.21.68a4.56,4.56,0,0,1-5.7,3h0L49.45,50.3a7.3,7.3,0,0,0,4.82,9.13l17.18,5.3a7.3,7.3,0,0,0,9.13-4.83l10.7-34.67A7.32,7.32,0,0,0,86.45,16.09Z" style="fill:#fff"/><path d="M75.91,34.45l-16.1-5a1.86,1.86,0,0,1-1.24-2.34L59,25.69a1.88,1.88,0,0,0-2.38-2.33L43.23,27.79a1.87,1.87,0,0,0-.9,2.92l8.58,11.22a1.88,1.88,0,0,0,3.28-.59l.45-1.45A1.87,1.87,0,0,1,57,38.65l16.1,5a1.88,1.88,0,0,0,2.34-1.24l1.72-5.59A1.87,1.87,0,0,0,75.91,34.45Z" style="fill:#fff"/><path d="M83,88.4c-9.62,0-18.84-.18-27.41-.54-16.44-.7-30.16-6.63-39.68-17.16C6.19,60,1.36,44.94,2.31,28.41A82.58,82.58,0,0,1,9.7-1.75L10-2.3H20.59L18.24,2.18A73.32,73.32,0,0,0,11.68,29c-.8,14,3.17,26.59,11.19,35.45C30.67,73,42.12,77.88,56,78.47c8.44.36,17.54.54,27,.54,18.86,0,33.45-.69,37.48-.9l1,0v9.4l-1,.05C116.51,87.72,101.68,88.4,83,88.4Z" style="fill:#3a2525"/><path d="M120.56,80.71h-.11c-.32,0-32.26,1.82-65.53.41-14.65-.63-26.79-5.82-35.11-15C11.27,56.69,7,43.36,7.89,28.6A75.39,75.39,0,0,1,14.76.66l1-2H11.62l-.13.24c-.26.49-6.3,12.13-7.29,29.44C3.29,44.14,7.86,58.43,17.07,68.6c9,9.94,22,15.55,37.69,16.22,9.43.4,18.75.54,27.29.54,20.61,0,36.63-.84,38.51-.94Z" style="fill:#fff"/></g></svg>