<svg xmlns="http://www.w3.org/2000/svg" xmlns:xlink="http://www.w3.org/1999/xlink" viewBox="0 0 120 90.98"><defs><clipPath id="a"><rect width="120" height="90.98" style="fill:none"/></clipPath></defs><title>bg</title><g style="clip-path:url(#a)"><path d="M54.84,83c33.74,1.44,65.72-.4,65.72-.4V-.2H13.12S7,11.37,6,28.49C4.42,56.71,20.8,81.53,54.84,83Z" style="fill:#d64747"/><path d="M77.62,33.08,58.55,28.92a2.19,2.19,0,0,1-1.66-2.59l.38-1.71a2.17,2.17,0,0,0-3-2.46l-15,6.42A2.17,2.17,0,0,0,38.49,32l11,12.11a2.17,2.17,0,0,0,3.73-1l.38-1.72a2.17,2.17,0,0,1,2.58-1.66l19.06,4.17a2.16,2.16,0,0,0,2.58-1.66l1.45-6.61A2.17,2.17,0,0,0,77.62,33.08Z" style="fill:#fff"/><path d="M88,10.86,67.67,6.42a8.47,8.47,0,0,0-10.08,6.46L56.25,19h0a5.29,5.29,0,0,1,4,6.28l-.18.81L62,26.5l2.64-12.07a1.25,1.25,0,0,1,1.47-.95l20.34,4.45a1.23,1.23,0,0,1,.94,1.47l-9,41.06A1.22,1.22,0,0,1,77,61.4L56.62,57a1.24,1.24,0,0,1-.94-1.47l2.64-12.08L56.42,43l-.17.81a5.28,5.28,0,0,1-6.28,4h0l-1.33,6.11A8.47,8.47,0,0,0,55.08,64l20.33,4.45A8.49,8.49,0,0,0,85.49,62l9-41.06A8.47,8.47,0,0,0,88,10.86Z" style="fill:#fff"/><path d="M77.62,33.08,58.55,28.92a2.19,2.19,0,0,1-1.66-2.59l.38-1.71a2.17,2.17,0,0,0-3-2.46l-15,6.42A2.17,2.17,0,0,0,38.49,32l11,12.11a2.17,2.17,0,0,0,3.73-1l.38-1.72a2.17,2.17,0,0,1,2.58-1.66l19.06,4.17a2.16,2.16,0,0,0,2.58-1.66l1.45-6.61A2.17,2.17,0,0,0,77.62,33.08Z" style="fill:#fff"/><path d="M83,88.4c-9.62,0-18.84-.18-27.41-.54-16.44-.7-30.16-6.63-39.68-17.16C6.19,60,1.36,44.94,2.31,28.41A82.58,82.58,0,0,1,9.7-1.75L10-2.3H20.59L18.24,2.18A73.32,73.32,0,0,0,11.68,29c-.8,14,3.17,26.59,11.19,35.45C30.67,73,42.12,77.88,56,78.47c8.44.36,17.54.54,27,.54,18.86,0,33.45-.69,37.48-.9l1,0v9.4l-1,.05C116.51,87.72,101.68,88.4,83,88.4Z" style="fill:#3a2525"/><path d="M120.56,80.71h-.11c-.32,0-32.26,1.82-65.53.41-14.65-.63-26.79-5.82-35.11-15C11.27,56.69,7,43.36,7.89,28.6A75.39,75.39,0,0,1,14.76.66l1-2H11.62l-.13.24c-.26.49-6.3,12.13-7.29,29.44C3.29,44.14,7.86,58.43,17.07,68.6c9,9.94,22,15.55,37.69,16.22,9.43.4,18.75.54,27.29.54,20.61,0,36.63-.84,38.51-.94Z" style="fill:#fff"/></g></svg>