<svg xmlns="http://www.w3.org/2000/svg" xmlns:xlink="http://www.w3.org/1999/xlink" viewBox="0 0 120 90"><defs><clipPath id="a"><rect y="-0.49" width="120" height="90.98" style="fill:none"/></clipPath></defs><title>capture-2</title><g style="clip-path:url(#a)"><path d="M55.93,7.89c33.75-1.44,65.72.4,65.72.4V91.06H14.22S8.12,79.49,7.14,62.37C5.51,34.15,21.89,9.33,55.93,7.89Z" style="fill:#4ad184"/><path d="M84.1,2.46c-9.63,0-18.85.18-27.41.54C40.25,3.7,26.52,9.63,17,20.16,7.28,30.9,2.45,45.92,3.4,62.45a82.58,82.58,0,0,0,7.39,30.16l.28.55H21.68l-2.35-4.48a73.43,73.43,0,0,1-6.55-26.77C12,47.91,16,35.32,24,26.46,31.76,17.84,43.22,13,57.09,12.39c8.44-.36,17.53-.54,27-.54,18.87,0,33.46.69,37.48.9l1.05.05V3.4l-1,0C117.6,3.14,102.77,2.46,84.1,2.46Z" style="fill:#3a2525"/><path d="M121.65,10.15h-.1c-.32,0-32.27-1.82-65.54-.4-14.65.62-26.79,5.81-35.11,15C12.37,34.17,8.13,47.5,9,62.26A75.51,75.51,0,0,0,15.86,90.2l1,2H12.71l-.13-.24c-.25-.49-6.29-12.13-7.29-29.44C4.38,46.72,9,32.43,18.16,22.26c9-9.94,22-15.55,37.7-16.22,9.42-.4,18.75-.54,27.28-.54,20.62,0,36.64.84,38.51.94Z" style="fill:#fff"/><path d="M100.65,39.17H93.87A1.18,1.18,0,0,1,92.69,38l.92-4.08a1.18,1.18,0,0,1,1.18-1.18h4.94a1.18,1.18,0,0,1,1.18,1.18l.92,4.08A1.18,1.18,0,0,1,100.65,39.17Z" style="fill:#fff"/><path d="M99.82,40.08H88.21a5,5,0,0,1-4.43-2.65l-4-7.38a5,5,0,0,0-4.42-2.65h-16A5,5,0,0,0,55,30L51,37.46a5,5,0,0,1-4.4,2.62H45.43a5,5,0,0,0-5,5V71.76a5,5,0,0,0,5,5H99.82a5,5,0,0,0,5-5V45.1A5,5,0,0,0,99.82,40.08ZM65.44,71.72a14.51,14.51,0,1,1,14.5-14.51A14.51,14.51,0,0,1,65.44,71.72Z" style="fill:#fff"/><path d="M73.07,52.61a3.1,3.1,0,0,1-4.84-3.86.87.87,0,0,0-.53-1.33,10,10,0,1,0,6.78,5.4A.86.86,0,0,0,73.07,52.61Z" style="fill:#fff"/></g></svg>