<svg xmlns="http://www.w3.org/2000/svg" viewBox="0 0 82 82"><title>del-2</title><path d="M4.19,5.32H77.85a0,0,0,0,1,0,0V69.14A12.94,12.94,0,0,1,64.91,82.08H17.13A12.94,12.94,0,0,1,4.19,69.14V5.32A0,0,0,0,1,4.19,5.32Z" transform="translate(82.04 87.4) rotate(180)" style="fill:#3a2525"/><path d="M9.19,84.08V18.26a8,8,0,0,1,7.94-7.94H64.91a8,8,0,0,1,7.94,7.94V84.08h3V18.26A11,11,0,0,0,64.91,7.32H17.13A11,11,0,0,0,6.19,18.26V84.08Z" style="fill:#fff"/><path d="M4.72,18.8H71.38a5.94,5.94,0,0,1,5.94,5.94V72.51a5.94,5.94,0,0,1-5.94,5.94H4.72a0,0,0,0,1,0,0V18.8A0,0,0,0,1,4.72,18.8Z" transform="translate(-7.6 89.64) rotate(-90)" style="fill:#d64747"/><path d="M62.39,30.15,28,19.72a2,2,0,0,0-2.37,1.11l-3.11,6.82a2,2,0,0,0,1.3,2.78l37,10.14a2,2,0,0,0,2.54-1.73l.54-6.53A2,2,0,0,0,62.39,30.15Z" style="fill:#fff"/><path d="M58.54,42.3l-33.33-5a1.7,1.7,0,0,0-2,1.75l1.22,32.47a1.7,1.7,0,0,0,1.45,1.62l21.39,3.22a1.7,1.7,0,0,0,1.86-1.12L59.89,44.55A1.71,1.71,0,0,0,58.54,42.3ZM31.38,72.59l-1.2-.18A2.52,2.52,0,0,1,28,70L27.1,43A2.51,2.51,0,0,1,30,40.48l.26,0a2.5,2.5,0,0,1,2.13,2.39L34.26,70A2.51,2.51,0,0,1,31.38,72.59Zm8.94,1.34a2.51,2.51,0,0,1-2.14-2.56l.91-26.69a2.51,2.51,0,1,1,5,.17l-.91,26.69A2.49,2.49,0,0,1,40.32,73.93Z" style="fill:#fff"/><path d="M39.78,21.87l.27-.13a3.32,3.32,0,0,1,2.3-.21l7.57,3.07A3.28,3.28,0,0,1,51.81,26l.14.21a.61.61,0,0,0,.34.25l2.82.77a.59.59,0,0,0,.68-.85L54,23a2.72,2.72,0,0,0-1.65-1.32L41.94,17.85A2.74,2.74,0,0,0,40,18L36.15,20a.6.6,0,0,0,.11,1.11l3.11.85A.58.58,0,0,0,39.78,21.87Z" style="fill:#fff"/></svg>