<svg xmlns="http://www.w3.org/2000/svg" viewBox="0 0 82 82"><title>del-3</title><path d="M4.19,5.32H77.85a0,0,0,0,1,0,0V69.14A12.94,12.94,0,0,1,64.91,82.08H17.13A12.94,12.94,0,0,1,4.19,69.14V5.32A0,0,0,0,1,4.19,5.32Z" transform="translate(82.04 87.4) rotate(180)" style="fill:#3a2525"/><path d="M9.19,84.08V18.26a8,8,0,0,1,7.94-7.94H64.91a8,8,0,0,1,7.94,7.94V84.08h3V18.26A11,11,0,0,0,64.91,7.32H17.13A11,11,0,0,0,6.19,18.26V84.08Z" style="fill:#fff"/><path d="M4.72,18.8H71.38a5.94,5.94,0,0,1,5.94,5.94V72.51a5.94,5.94,0,0,1-5.94,5.94H4.72a0,0,0,0,1,0,0V18.8A0,0,0,0,1,4.72,18.8Z" transform="translate(-7.6 89.64) rotate(-90)" style="fill:#893030"/><path d="M53.77,27.54,23.31,30.93a1.73,1.73,0,0,0-1.49,1.67L21.68,39a1.72,1.72,0,0,0,1.95,1.75L56,36.25A1.73,1.73,0,0,0,57.42,34l-1.77-5.31A1.72,1.72,0,0,0,53.77,27.54Z" style="fill:#fff"/><path d="M54.26,38l-28.48,4a1.45,1.45,0,0,0-1.17,1.9l8.84,26.28a1.44,1.44,0,0,0,1.58,1L53.3,68.55a1.45,1.45,0,0,0,1.25-1.37l1.36-27.69A1.45,1.45,0,0,0,54.26,38ZM39.36,69.32l-1,.14A2.14,2.14,0,0,1,36,68L28.72,46.18a2.13,2.13,0,0,1,1.74-2.79l.22,0A2.13,2.13,0,0,1,33,44.8l8.1,21.72A2.15,2.15,0,0,1,39.36,69.32ZM47,68.26a2.15,2.15,0,0,1-2.37-1.58l-5.7-22.06a2.14,2.14,0,0,1,4.14-1.07l5.7,22.06A2.14,2.14,0,0,1,47,68.26Z" style="fill:#fff"/><path d="M33.26,28.65l.17-.19a2.78,2.78,0,0,1,1.73-.93l7-.15a2.87,2.87,0,0,1,1.95.45l.17.12a.48.48,0,0,0,.35.08l2.48-.34a.51.51,0,0,0,.24-.9l-2.55-2A2.32,2.32,0,0,0,43,24.29l-9.44.49a2.32,2.32,0,0,0-1.43.78l-2.39,2.81a.5.5,0,0,0,.45.83L33,28.82A.44.44,0,0,0,33.26,28.65Z" style="fill:#fff"/></svg>