<svg xmlns="http://www.w3.org/2000/svg" viewBox="0 0 82 82"><title>del-1</title><path d="M4.19,5.32H77.85a0,0,0,0,1,0,0V69.14A12.94,12.94,0,0,1,64.91,82.08H17.13A12.94,12.94,0,0,1,4.19,69.14V5.32A0,0,0,0,1,4.19,5.32Z" transform="translate(82.04 87.4) rotate(180)" style="fill:#3a2525"/><path d="M9.19,84.08V18.26a8,8,0,0,1,7.94-7.94H64.91a8,8,0,0,1,7.94,7.94V84.08h3V18.26A11,11,0,0,0,64.91,7.32H17.13A11,11,0,0,0,6.19,18.26V84.08Z" style="fill:#fff"/><path d="M4.72,18.8H71.38a5.94,5.94,0,0,1,5.94,5.94V72.51a5.94,5.94,0,0,1-5.94,5.94H4.72a0,0,0,0,1,0,0V18.8A0,0,0,0,1,4.72,18.8Z" transform="translate(-7.6 89.64) rotate(-90)" style="fill:#af3535"/><path d="M57.84,27.74l-33.68-.9a1.89,1.89,0,0,0-1.86,1.59l-1.13,6.94A1.89,1.89,0,0,0,23,37.56H59a1.89,1.89,0,0,0,1.87-2.19l-1.13-6A1.89,1.89,0,0,0,57.84,27.74Z" style="fill:#fff"/><path d="M56.8,39.18H25.2a1.6,1.6,0,0,0-1.57,1.9L29.29,71a1.6,1.6,0,0,0,1.57,1.3H51.14A1.6,1.6,0,0,0,52.71,71l5.66-29.94A1.6,1.6,0,0,0,56.8,39.18ZM35.85,71.05H34.71a2.35,2.35,0,0,1-2.31-1.92L27.76,44.25a2.35,2.35,0,0,1,2.31-2.78h.24a2.36,2.36,0,0,1,2.31,1.92l5.54,24.88A2.35,2.35,0,0,1,35.85,71.05Zm8.47,0A2.34,2.34,0,0,1,42,69L39.1,44.09a2.35,2.35,0,0,1,4.67-.54l2.89,24.88A2.35,2.35,0,0,1,44.32,71.05Z" style="fill:#fff"/><path d="M35.34,25.86l.21-.19a3.12,3.12,0,0,1,2-.75l7.61.89a3,3,0,0,1,2.05.79l.17.15a.57.57,0,0,0,.37.14h2.75a.55.55,0,0,0,.4-.94l-2.47-2.58a2.51,2.51,0,0,0-1.82-.78l-10.35-.9a2.55,2.55,0,0,0-1.68.64l-3,2.69A.56.56,0,0,0,32,26h3A.54.54,0,0,0,35.34,25.86Z" style="fill:#fff"/></svg>