<svg xmlns="http://www.w3.org/2000/svg" viewBox="0 0 82 82"><title>print-3</title><path d="M4.19,5.32H77.85a0,0,0,0,1,0,0V69.14A12.94,12.94,0,0,1,64.91,82.08H17.13A12.94,12.94,0,0,1,4.19,69.14V5.32A0,0,0,0,1,4.19,5.32Z" transform="translate(82.04 87.4) rotate(180)" style="fill:#3a2525"/><path d="M9.19,84.08V18.26a8,8,0,0,1,7.94-7.94H64.91a8,8,0,0,1,7.94,7.94V84.08h3V18.26A11,11,0,0,0,64.91,7.32H17.13A11,11,0,0,0,6.19,18.26V84.08Z" style="fill:#fff"/><path d="M4.72,18.8H71.38a5.94,5.94,0,0,1,5.94,5.94V72.51a5.94,5.94,0,0,1-5.94,5.94H4.72a0,0,0,0,1,0,0V18.8A0,0,0,0,1,4.72,18.8Z" transform="translate(-7.6 89.64) rotate(-90)" style="fill:#318777"/><rect x="28.51" y="54.26" width="27.73" height="14.31" rx="2.07" transform="translate(5.5 -3.45) rotate(4.99)" style="fill:#fff"/><path d="M57.75,40.64,55,40.4l-.11,1.36a1.65,1.65,0,0,1-1.79,1.5L34.17,41.61a1.65,1.65,0,0,1-1.5-1.79l.12-1.36-2-.17a4.4,4.4,0,0,0-4.76,4L24.86,56a.73.73,0,0,0,.66.79l2.39.21.29-3.31A1.65,1.65,0,0,1,30,52.23l26.17,2.29a1.65,1.65,0,0,1,1.5,1.78l-.29,3.31,2.39.21a.73.73,0,0,0,.79-.66l1.2-13.75A4.41,4.41,0,0,0,57.75,40.64Z" style="fill:#fff"/><rect x="33.7" y="36.51" width="20.44" height="5.02" rx="2.03" transform="translate(3.56 -3.67) rotate(4.99)" style="fill:#fff"/><path d="M24.89,43.87l-2.48-.21a4.21,4.21,0,0,0-4.57,3.83l-.59,6.79a.92.92,0,0,0,.83,1l5.77.5Z" style="fill:#fff"/></svg>