<svg xmlns="http://www.w3.org/2000/svg" viewBox="0 0 82 82"><title>print-1</title><path d="M4.19,5.32H77.85a0,0,0,0,1,0,0V69.14A12.94,12.94,0,0,1,64.91,82.08H17.13A12.94,12.94,0,0,1,4.19,69.14V5.32A0,0,0,0,1,4.19,5.32Z" transform="translate(82.04 87.4) rotate(180)" style="fill:#3a2525"/><path d="M9.19,84.08V18.26a8,8,0,0,1,7.94-7.94H64.91a8,8,0,0,1,7.94,7.94V84.08h3V18.26A11,11,0,0,0,64.91,7.32H17.13A11,11,0,0,0,6.19,18.26V84.08Z" style="fill:#fff"/><path d="M4.72,18.8H71.38a5.94,5.94,0,0,1,5.94,5.94V72.51a5.94,5.94,0,0,1-5.94,5.94H4.72a0,0,0,0,1,0,0V18.8A0,0,0,0,1,4.72,18.8Z" transform="translate(-7.6 89.64) rotate(-90)" style="fill:#36ad96"/><rect x="27.96" y="55.89" width="30.87" height="11.6" rx="2.07" style="fill:#fff"/><path d="M58.44,39.33h-3.1v1.52a1.83,1.83,0,0,1-1.83,1.83H32.37a1.83,1.83,0,0,1-1.83-1.83V39.33H28.35a4.9,4.9,0,0,0-4.9,4.9V59.59a.81.81,0,0,0,.81.81h2.67V56.71a1.84,1.84,0,0,1,1.84-1.84H58a1.84,1.84,0,0,1,1.84,1.84V60.4h2.67a.81.81,0,0,0,.81-.81V44.23A4.9,4.9,0,0,0,58.44,39.33Z" style="fill:#fff"/><rect x="31.56" y="23.75" width="22.76" height="17.92" rx="2.03" style="fill:#fff"/><path d="M22.3,46.09H19.54a4.71,4.71,0,0,0-4.7,4.7v7.58a1,1,0,0,0,1,1H22.3Z" style="fill:#fff"/></svg>