<svg xmlns="http://www.w3.org/2000/svg" viewBox="0 0 82 82"><title>print-2</title><path d="M4.19,5.32H77.85a0,0,0,0,1,0,0V69.14A12.94,12.94,0,0,1,64.91,82.08H17.13A12.94,12.94,0,0,1,4.19,69.14V5.32A0,0,0,0,1,4.19,5.32Z" transform="translate(82.04 87.4) rotate(180)" style="fill:#3a2525"/><path d="M9.19,84.08V18.26a8,8,0,0,1,7.94-7.94H64.91a8,8,0,0,1,7.94,7.94V84.08h3V18.26A11,11,0,0,0,64.91,7.32H17.13A11,11,0,0,0,6.19,18.26V84.08Z" style="fill:#fff"/><path d="M4.72,18.8H71.38a5.94,5.94,0,0,1,5.94,5.94V72.51a5.94,5.94,0,0,1-5.94,5.94H4.72a0,0,0,0,1,0,0V18.8A0,0,0,0,1,4.72,18.8Z" transform="translate(-7.6 89.64) rotate(-90)" style="fill:#48d3b9"/><rect x="29.54" y="56.39" width="32.11" height="12.07" rx="2.07" transform="translate(-8.69 7.39) rotate(-8.46)" style="fill:#fff"/><path d="M57.65,37.12l-3.18.47.23,1.56a1.91,1.91,0,0,1-1.61,2.17L31.35,44.56A1.92,1.92,0,0,1,29.18,43L29,41.39l-2.26.33a5.11,5.11,0,0,0-4.29,5.79l2.35,15.8a.85.85,0,0,0,1,.71l2.75-.41-.56-3.8a1.91,1.91,0,0,1,1.6-2.17l30.09-4.47a1.9,1.9,0,0,1,2.17,1.61l.57,3.8,2.74-.41a.84.84,0,0,0,.71-1l-2.35-15.8A5.09,5.09,0,0,0,57.65,37.12Z" style="fill:#fff"/><rect x="29.24" y="28.53" width="23.67" height="13.43" rx="2.03" transform="translate(-4.74 6.43) rotate(-8.46)" style="fill:#fff"/><path d="M21.51,49.6,18.67,50a4.88,4.88,0,0,0-4.12,5.55l1.16,7.8a1.07,1.07,0,0,0,1.2.89l6.64-1Z" style="fill:#fff"/></svg>