<svg xmlns="http://www.w3.org/2000/svg" viewBox="0 0 82 82"><title>view-3</title><path d="M4.19,5.32H77.85a0,0,0,0,1,0,0V69.14A12.94,12.94,0,0,1,64.91,82.08H17.13A12.94,12.94,0,0,1,4.19,69.14V5.32A0,0,0,0,1,4.19,5.32Z" transform="translate(82.04 87.4) rotate(180)" style="fill:#3a2525"/><path d="M9.19,84.08V18.26a8,8,0,0,1,7.94-7.94H64.91a8,8,0,0,1,7.94,7.94V84.08h3V18.26A11,11,0,0,0,64.91,7.32H17.13A11,11,0,0,0,6.19,18.26V84.08Z" style="fill:#fff"/><path d="M4.72,18.8H71.38a5.94,5.94,0,0,1,5.94,5.94V72.51a5.94,5.94,0,0,1-5.94,5.94H4.72a0,0,0,0,1,0,0V18.8A0,0,0,0,1,4.72,18.8Z" transform="translate(-7.6 89.64) rotate(-90)" style="fill:#315b87"/><path d="M20.5,32.62A14,14,0,1,0,40.1,30,14,14,0,0,0,20.5,32.62ZM40.24,47.76a10.9,10.9,0,1,1-2-15.28A10.9,10.9,0,0,1,40.24,47.76Z" style="fill:#fff"/><path d="M27.17,48.84a1.34,1.34,0,0,1-1.37-.15A9.52,9.52,0,0,1,24,35.34,1.34,1.34,0,1,1,26.17,37a6.83,6.83,0,0,0,1.27,9.57,1.35,1.35,0,0,1,.24,1.89A1.25,1.25,0,0,1,27.17,48.84Z" style="fill:#fff"/><path d="M47.25,50.53l-2.86-2.19a9.61,9.61,0,0,1-1.08,1.78,9.81,9.81,0,0,1-1.44,1.51l2.85,2.19A1.19,1.19,0,0,0,45,55.38L57.51,65a1.18,1.18,0,0,0,1.66-.22l2.38-3.1A1.18,1.18,0,0,0,61.33,60l-12.5-9.59A1.18,1.18,0,0,0,47.25,50.53Z" style="fill:#fff"/></svg>