<svg xmlns="http://www.w3.org/2000/svg" viewBox="0 0 82 82"><title>view-2</title><path d="M4.19,5.32H77.85a0,0,0,0,1,0,0V69.14A12.94,12.94,0,0,1,64.91,82.08H17.13A12.94,12.94,0,0,1,4.19,69.14V5.32A0,0,0,0,1,4.19,5.32Z" transform="translate(82.04 87.4) rotate(180)" style="fill:#3a2525"/><path d="M9.19,84.08V18.26a8,8,0,0,1,7.94-7.94H64.91a8,8,0,0,1,7.94,7.94V84.08h3V18.26A11,11,0,0,0,64.91,7.32H17.13A11,11,0,0,0,6.19,18.26V84.08Z" style="fill:#fff"/><path d="M4.72,18.8H71.38a5.94,5.94,0,0,1,5.94,5.94V72.51a5.94,5.94,0,0,1-5.94,5.94H4.72a0,0,0,0,1,0,0V18.8A0,0,0,0,1,4.72,18.8Z" transform="translate(-7.6 89.64) rotate(-90)" style="fill:#488cd3"/><path d="M39.52,19.42a17.13,17.13,0,1,0,18.21,16A17.12,17.12,0,0,0,39.52,19.42Zm2,30.42A13.35,13.35,0,1,1,54,35.64,13.35,13.35,0,0,1,41.51,49.84Z" style="fill:#fff"/><path d="M30,38.67a1.66,1.66,0,0,1-1-1.4A11.68,11.68,0,0,1,39.88,24.88a1.65,1.65,0,0,1,.22,3.29,8.38,8.38,0,0,0-7.81,8.89,1.65,1.65,0,0,1-1.53,1.75A1.61,1.61,0,0,1,30,38.67Z" style="fill:#fff"/><path d="M44.62,58.52l-.28-4.4a11.89,11.89,0,0,1-2.52.45,12.05,12.05,0,0,1-2.55-.12l.28,4.4a1.45,1.45,0,0,0-1.2,1.52L39.6,79.63A1.47,1.47,0,0,0,41.15,81l4.77-.31a1.47,1.47,0,0,0,1.36-1.55L46,59.87A1.45,1.45,0,0,0,44.62,58.52Z" style="fill:#fff"/></svg>