<svg xmlns="http://www.w3.org/2000/svg" viewBox="0 0 82 82"><title>view-1</title><path d="M4.19,5.32H77.85a0,0,0,0,1,0,0V69.14A12.94,12.94,0,0,1,64.91,82.08H17.13A12.94,12.94,0,0,1,4.19,69.14V5.32A0,0,0,0,1,4.19,5.32Z" transform="translate(82.04 87.4) rotate(180)" style="fill:#3a2525"/><path d="M9.19,84.08V18.26a8,8,0,0,1,7.94-7.94H64.91a8,8,0,0,1,7.94,7.94V84.08h3V18.26A11,11,0,0,0,64.91,7.32H17.13A11,11,0,0,0,6.19,18.26V84.08Z" style="fill:#fff"/><path d="M4.72,18.8H71.38a5.94,5.94,0,0,1,5.94,5.94V72.51a5.94,5.94,0,0,1-5.94,5.94H4.72a0,0,0,0,1,0,0V18.8A0,0,0,0,1,4.72,18.8Z" transform="translate(-7.6 89.64) rotate(-90)" style="fill:#3670ad"/><path d="M27,23.63a16,16,0,1,0,21.62,6.58A16,16,0,0,0,27,23.63ZM40.42,48.72a12.45,12.45,0,1,1,5.13-16.85A12.45,12.45,0,0,1,40.42,48.72Z" style="fill:#fff"/><path d="M26.32,43.66A1.53,1.53,0,0,1,25,42.85a10.89,10.89,0,0,1,4.48-14.72,1.53,1.53,0,1,1,1.44,2.71A7.82,7.82,0,0,0,27.67,41.4,1.54,1.54,0,0,1,27,43.48,1.57,1.57,0,0,1,26.32,43.66Z" style="fill:#fff"/><path d="M46.4,54.91l-1.93-3.63a11.59,11.59,0,0,1-2,1.34,11.35,11.35,0,0,1-2.21.89l1.93,3.63a1.34,1.34,0,0,0-.44,1.75l8.47,15.89a1.35,1.35,0,0,0,1.83.56L56,73.24a1.35,1.35,0,0,0,.56-1.83L48.11,55.52A1.35,1.35,0,0,0,46.4,54.91Z" style="fill:#fff"/></svg>